<svg id="Capa_1" enable-background="new 0 0 512.001 512.001" height="512" viewBox="0 0 512.001 512.001" width="512" xmlns="http://www.w3.org/2000/svg"><g><path d="m322 392h-132c-8.271 0-15 6.729-15 15s6.729 15 15 15h132c8.271 0 15-6.729 15-15s-6.729-15-15-15z"/><path d="m271.369 158.435-15.347-9.022-15.389 9.099v24.149h30.736z"/><path d="m216.963 30.001h78.066c12.796 0 23.621-7.863 27.579-20.032l3.241-9.969h-139.703l3.236 9.961c3.955 12.174 14.781 20.04 27.581 20.04z"/><path d="m362 0h-4.605l-6.259 19.247c-8.051 24.757-30.075 40.754-56.108 40.754h-78.066c-26.041 0-48.066-16.003-56.113-40.77l-6.247-19.231h-4.602c-35.841 0-65 29.159-65 65v382.001c0 35.841 29.159 65 65 65h212c35.841 0 65-29.159 65-65v-382.001c0-35.841-29.158-65-65-65zm-157.134 144.808 43.5-25.719c4.698-2.777 10.533-2.784 15.236-.019l43.5 25.573c7.141 4.199 9.527 13.392 5.329 20.533-2.452 4.17-6.608 6.703-11.063 7.266v25.22c0 8.284-6.716 15-15 15h-60.736c-8.284 0-15-6.716-15-15v-25.058c-4.443-.561-8.589-3.095-11.044-7.249-4.216-7.132-1.853-16.331 5.278-20.547zm117.134 307.192h-132c-24.813 0-45-20.187-45-45s20.187-45 45-45h132c24.813 0 45 20.187 45 45s-20.187 45-45 45zm0-120h-132c-24.813 0-45-20.187-45-45s20.187-45 45-45h132c24.813 0 45 20.187 45 45s-20.187 45-45 45z"/><path d="m322 272h-132c-8.271 0-15 6.729-15 15s6.729 15 15 15h132c8.271 0 15-6.729 15-15s-6.729-15-15-15z"/></g></svg>