<?xml version="1.0" encoding="iso-8859-1"?>
<!-- Generator: Adobe Illustrator 19.0.0, SVG Export Plug-In . SVG Version: 6.00 Build 0)  -->
<svg version="1.1" id="Layer_1" xmlns="http://www.w3.org/2000/svg" xmlns:xlink="http://www.w3.org/1999/xlink" x="0px" y="0px"
	 viewBox="0 0 512 512" style="enable-background:new 0 0 512 512;" xml:space="preserve">
<g>
	<g>
		<path d="M496.993,482.001h-16V227.009c0-6.601-4.2-12.301-10.201-14.101L330.998,166.11V512h165.995c8.401,0,15-6.601,15-14.999
			C511.992,488.6,505.393,482.001,496.993,482.001z M450.994,482.001h-29.999v-59.998h-29.999v59.998h-29.999v-74.998
			c0-8.401,6.599-15,15-15h59.998c8.401,0,15,6.599,15,15V482.001z M435.995,362.005h-59.998c-8.401,0-15-6.601-15-15
			c0-8.401,6.599-15,15-15h59.998c8.401,0,15,6.599,15,15C450.994,355.404,444.395,362.005,435.995,362.005z M435.995,302.007
			h-59.998c-8.401,0-15-6.601-15-15c0-8.401,6.599-15,15-15h59.998c8.401,0,15,6.599,15,15
			C450.994,295.406,444.395,302.007,435.995,302.007z"/>
	</g>
</g>
<g>
	<g>
		<path d="M291.399,90.912L51.407,0.915c-10.199-3.6-20.399,3.9-20.399,14.101v466.985h-16c-8.401,0-15,6.599-15,15
			c0,8.399,6.599,14.999,15,14.999h285.991c0-97.404,0-162.088,0-406.987C300.999,98.712,297.099,93.012,291.399,90.912z
			 M151.003,482.001H91.005v-74.998c0-8.401,6.599-15,15-15h44.999V482.001z M136.004,362.005h-29.999c-8.401,0-15-6.601-15-15
			c0-8.401,6.599-15,15-15h29.999c8.401,0,15,6.599,15,15C151.003,355.404,144.405,362.005,136.004,362.005z M136.004,302.007
			h-29.999c-8.401,0-15-6.601-15-15c0-8.401,6.599-15,15-15h29.999c8.401,0,15,6.599,15,15
			C151.003,295.406,144.405,302.007,136.004,302.007z M136.004,242.009h-29.999c-8.401,0-15-6.601-15-15c0-8.401,6.599-15,15-15
			h29.999c8.401,0,15,6.599,15,15C151.003,235.408,144.405,242.009,136.004,242.009z M136.004,182.011h-29.999
			c-8.401,0-15-6.601-15-15c0-8.401,6.599-15,15-15h29.999c8.401,0,15,6.599,15,15C151.003,175.41,144.405,182.011,136.004,182.011z
			 M241.001,482.001h-59.998v-89.997h44.999c8.401,0,15,6.599,15,15V482.001z M226.001,362.005h-29.999c-8.401,0-15-6.601-15-15
			c0-8.401,6.599-15,15-15h29.999c8.401,0,15,6.599,15,15C241.001,355.404,234.402,362.005,226.001,362.005z M226.001,302.007
			h-29.999c-8.401,0-15-6.601-15-15c0-8.401,6.599-15,15-15h29.999c8.401,0,15,6.599,15,15
			C241.001,295.406,234.402,302.007,226.001,302.007z M226.001,242.009h-29.999c-8.401,0-15-6.601-15-15c0-8.401,6.599-15,15-15
			h29.999c8.401,0,15,6.599,15,15C241.001,235.408,234.402,242.009,226.001,242.009z M226.001,182.011h-29.999
			c-8.401,0-15-6.601-15-15c0-8.401,6.599-15,15-15h29.999c8.401,0,15,6.599,15,15C241.001,175.41,234.402,182.011,226.001,182.011z
			"/>
	</g>
</g>
<g>
</g>
<g>
</g>
<g>
</g>
<g>
</g>
<g>
</g>
<g>
</g>
<g>
</g>
<g>
</g>
<g>
</g>
<g>
</g>
<g>
</g>
<g>
</g>
<g>
</g>
<g>
</g>
<g>
</g>
</svg>
