<?xml version="1.0" encoding="UTF-8"?>
<svg xmlns="http://www.w3.org/2000/svg" id="Layer_1" data-name="Layer 1" viewBox="0 0 24 24">
  <path d="M11.536,1.465C9.674-.475,6.326-.475,4.464,1.465c-.944,.944-1.464,2.199-1.464,3.535s.52,2.591,1.472,3.543l1.913,1.871c.89,.871,2.34,.871,3.23,0l1.921-1.879c.944-.944,1.464-2.199,1.464-3.535s-.52-2.591-1.464-3.535Zm-3.536,5.529c-1.105,0-2-.895-2-2s.895-2,2-2,2,.895,2,2-.895,2-2,2Zm16,.006s-2.007,4.037-2,4.5c.009,.575,0,1.5,0,2.5,0,.5-.34,.805-.55,1.17-.378,.657-1.004,1.39-1.355,2.059-.155,.301-.17,.741-.056,1.037,.257,.656,.58,1.265,.915,1.89,.14,.261,.251,.529,.309,.813,.109,.533-.295,1.032-.839,1.031h-.014c-.279,0-.537-.132-.7-.354-.345-.469-.711-1.141-.711-1.647,0-1-1.383-1-2-1-.419,0-.662,.175-.804,.379-.274,.394-.73,.621-1.21,.621h-.987c-.331,.24-.907,1.978-1.356,3-.325,.74-1.313,.877-1.828,.255-.324-.391-.635-1.355-.816-1.716-.169-.339-.731-.469-1.217-.517-.493-.049-.926-.35-1.157-.788-.041-.078-.084-.157-.127-.233-.508-.896-2.423-1.821-4-2-.286-.032-.561,.026-.815,.126-.442,.174-.945-.019-1.174-.436-.813-1.482-1.511-3.467-1.511-5.171v-1.256c0-1.356,.499-3.424,.792-4.52,.054-.202,.172-.371,.323-.499,.251,1.398,.918,2.689,1.958,3.729l1.913,1.871c1.59,1.62,4.438,1.621,6.027,0l1.937-1.895c1.035-1.035,1.7-2.339,1.942-3.752,.596,.14,1.235,.301,1.781,.445,.782,.205,1.327,.911,1.327,1.72v1.138c0,.5,.844,.201,1.125-.096,.35-.371,1.061-1.307,1.499-1.895,.198-.266,.465-.473,.775-.59,.365-.138,.568-.442,.601-.918,.015-.217-.006-.842-.013-1.35-.004-.361,.29-.654,.652-.647,.005,0,.009,0,.014,0,.232,.004,.443,.133,.552,.337,.344,.649,.795,1.78,.795,1.78v.88Z"/>
</svg>
