<?xml version="1.0" encoding="iso-8859-1"?>
<!-- Generator: Adobe Illustrator 19.0.0, SVG Export Plug-In . SVG Version: 6.00 Build 0)  -->
<svg version="1.1" id="Capa_1" xmlns="http://www.w3.org/2000/svg" xmlns:xlink="http://www.w3.org/1999/xlink" x="0px" y="0px"
	 viewBox="0 0 512 512" style="enable-background:new 0 0 512 512;" xml:space="preserve">
<g>
	<g>
		<path d="M147.836,95.581c-1.597-4.893-5.581-8.643-10.562-9.902l-31.011-7.91l-17.08-27.026c-5.508-8.701-19.863-8.701-25.371,0
			l-17.08,27.026l-31.996,7.91c-4.98,1.26-8.965,5.01-10.562,9.902c-1.582,4.893-0.557,10.254,2.725,14.209l20.435,24.609
			l-2.065,31.919c-0.322,5.127,1.992,10.078,6.152,13.096c4.175,3.032,10.565,3.735,15.37,1.802l29.707-11.821l29.722,11.821
			c4.83,1.924,10.212,1.212,14.37-1.802c4.16-3.018,6.489-7.969,6.152-13.096l-2.08-31.919l20.449-24.609
			C148.393,105.835,149.418,100.474,147.836,95.581z"/>
	</g>
</g>
<g>
	<g>
		<path d="M342.104,60.938c-1.729-5.303-6.226-9.199-11.719-10.151l-41.133-7.104l-19.482-36.3c-5.215-9.844-21.328-9.844-26.543,0
			l-19.482,36.299l-41.118,7.104c-5.493,0.952-9.99,4.849-11.719,10.137c-1.714,5.303-0.366,11.104,3.516,15.103l29.092,29.941
			l-5.947,41.323c-0.791,5.508,1.538,11.001,6.035,14.282c4.51,3.268,10.437,3.766,15.439,1.318l37.456-18.428l37.471,18.428
			c4.966,2.446,10.942,1.948,15.439-1.333c4.497-3.267,6.826-8.76,6.035-14.268l-5.962-41.323l29.106-29.941
			C342.47,72.026,343.817,66.226,342.104,60.938z"/>
	</g>
</g>
<g>
	<g>
		<path d="M508.836,95.581c-1.597-4.893-5.581-8.643-10.562-9.902l-32.011-7.91l-17.08-27.026c-5.508-8.701-19.863-8.701-25.371,0
			l-17.08,27.026l-30.996,7.91c-4.98,1.26-8.965,5.01-10.562,9.902c-1.582,4.893-0.557,10.254,2.725,14.209l20.435,24.609
			l-2.065,31.919c-0.322,5.127,1.992,10.078,6.152,13.096c4.175,3.032,9.565,3.735,14.37,1.802l29.707-11.821l29.722,11.821
			c4.83,1.924,10.212,1.212,14.37-1.802c4.16-3.018,7.489-7.969,7.152-13.096l-3.08-31.919l21.449-24.609
			C509.393,105.835,510.418,100.474,508.836,95.581z"/>
	</g>
</g>
<g>
	<g>
		<path d="M91,300v122h90V300H91z M151,377c0,8.291-6.709,15-15,15s-15-6.709-15-15v-32c0-8.291,6.709-15,15-15s15,6.709,15,15V377z
			"/>
	</g>
</g>
<g>
	<g>
		<path d="M331,300v122h90V300H331z M391,377c0,8.291-6.709,15-15,15c-8.291,0-15-6.709-15-15v-32c0-8.291,6.709-15,15-15
			c8.291,0,15,6.709,15,15V377z"/>
	</g>
</g>
<g>
	<g>
		<path d="M211,300v122h90V300H211z M271,377c0,8.291-6.709,15-15,15c-8.291,0-15-6.709-15-15v-32c0-8.291,6.709-15,15-15
			s15,6.709,15,15V377z"/>
	</g>
</g>
<g>
	<g>
		<path d="M466,210H46c-24.814,0-46,20.186-46,45v212c0,24.814,21.186,45,46,45h420c24.814,0,46-20.186,46-45V255
			C512,230.186,490.814,210,466,210z M451,437c0,8.291-6.709,15-15,15H76c-8.291,0-15-6.709-15-15V285c0-8.291,6.709-15,15-15h360
			c8.291,0,15,6.709,15,15V437z"/>
	</g>
</g>
<g>
</g>
<g>
</g>
<g>
</g>
<g>
</g>
<g>
</g>
<g>
</g>
<g>
</g>
<g>
</g>
<g>
</g>
<g>
</g>
<g>
</g>
<g>
</g>
<g>
</g>
<g>
</g>
<g>
</g>
</svg>
