<svg height="512pt" viewBox="0 0 512 512" width="512pt" xmlns="http://www.w3.org/2000/svg"><path d="m231.742188 110.453125h-231.742188v-50.398437c0-33.117188 26.949219-60.054688 60.078125-60.054688h71.140625c20.929688 0 40.019531 10.613281 51.050781 28.386719zm0 0"/><path d="m447.839844 88.191406v22.261719h-180.644532l-44.933593-72.410156h175.410156c27.65625 0 50.167969 22.488281 50.167969 50.148437zm0 0"/><path d="m461.765625 140.441406h-461.765625v321.34375c0 27.6875 22.535156 50.214844 50.234375 50.214844h411.53125c27.699219 0 50.234375-22.527344 50.234375-50.214844v-271.128906c0-27.6875-22.535156-50.214844-50.234375-50.214844zm-56.203125 316.058594h-273.929688c-22.164062 0-40.195312-18.03125-40.195312-40.199219v-205.359375c0-8.285156 6.714844-15 15-15 8.28125 0 15 6.714844 15 15v205.359375c0 5.625 4.574219 10.199219 10.195312 10.199219h27.226563v-67.703125c0-8.285156 6.714844-15 15-15s15 6.714844 15 15v67.703125h32.140625v-150.40625c0-8.285156 6.714844-15 15-15s15 6.714844 15 15v150.40625h34.003906v-114.710938c0-8.28125 6.714844-15 15-15s15 6.71875 15 15v114.710938h35.996094v-150.40625c0-8.285156 6.714844-15 15-15s15 6.714844 15 15v150.40625h24.5625c8.285156 0 15 6.714844 15 15s-6.714844 15-15 15zm0 0"/></svg>